<svg width="630" height="50" viewBox="0 0 630 50" fill="none" xmlns="http://www.w3.org/2000/svg">
<g clip-path="url(#clip0)">
<path fill-rule="evenodd" clip-rule="evenodd" d="M0.805908 24.9906L23.2949 0H32.0354L9.54647 24.9906L32.0354 49.9812H23.2949L0.805908 24.9906Z" fill="black"/>
<path fill-rule="evenodd" clip-rule="evenodd" d="M18.2871 24.9906L21.2107 21.7418H34.1198L27.6652 14.5693L32.0355 9.71286L45.7839 24.9906L32.0355 40.2683L27.6652 35.4119L34.1198 28.2394H21.2107L18.2871 24.9906Z" fill="black"/>
<path d="M72.1887 8.15021V40.8425H79.3774V30.3114L83.4982 26.1447L93.3426 40.8425H102.363L88.3517 21.0623L101.126 8.15021H92.1521L79.3774 21.7033V8.15021H72.1887Z" fill="black"/>
<path d="M104.088 17.1704V40.8425H110.59V28.4341C110.59 26.0226 110.987 24.298 111.78 23.2601C112.574 22.1917 113.856 21.6575 115.626 21.6575C117.183 21.6575 118.267 22.1459 118.877 23.1227C119.488 24.069 119.793 25.519 119.793 27.4726V40.8425H126.295V26.2821C126.295 24.8169 126.158 23.489 125.883 22.2986C125.639 21.0776 125.196 20.055 124.555 19.2308C123.914 18.3761 123.029 17.7198 121.899 17.2619C120.8 16.7735 119.381 16.5293 117.641 16.5293C116.267 16.5293 114.924 16.8498 113.612 17.4909C112.299 18.1014 111.231 19.0934 110.407 20.4671H110.269V17.1704H104.088Z" fill="black"/>
<path d="M136.541 29.0293C136.541 28.0831 136.633 27.152 136.816 26.2363C136.999 25.3205 137.304 24.5116 137.731 23.8096C138.189 23.1075 138.785 22.5428 139.517 22.1154C140.25 21.6575 141.166 21.4286 142.264 21.4286C143.363 21.4286 144.279 21.6575 145.012 22.1154C145.775 22.5428 146.37 23.1075 146.797 23.8096C147.255 24.5116 147.576 25.3205 147.759 26.2363C147.942 27.152 148.034 28.0831 148.034 29.0293C148.034 29.9756 147.942 30.9066 147.759 31.8224C147.576 32.7076 147.255 33.5165 146.797 34.2491C146.37 34.9512 145.775 35.5159 145.012 35.9433C144.279 36.3706 143.363 36.5843 142.264 36.5843C141.166 36.5843 140.25 36.3706 139.517 35.9433C138.785 35.5159 138.189 34.9512 137.731 34.2491C137.304 33.5165 136.999 32.7076 136.816 31.8224C136.633 30.9066 136.541 29.9756 136.541 29.0293ZM130.039 29.0293C130.039 30.9219 130.329 32.6313 130.909 34.1575C131.489 35.6838 132.313 36.9964 133.382 38.0953C134.45 39.1636 135.732 39.9878 137.228 40.5678C138.724 41.1478 140.402 41.4378 142.264 41.4378C144.126 41.4378 145.805 41.1478 147.301 40.5678C148.827 39.9878 150.125 39.1636 151.193 38.0953C152.261 36.9964 153.086 35.6838 153.666 34.1575C154.245 32.6313 154.535 30.9219 154.535 29.0293C154.535 27.1368 154.245 25.4274 153.666 23.9011C153.086 22.3444 152.261 21.0318 151.193 19.9634C150.125 18.8645 148.827 18.0251 147.301 17.4451C145.805 16.8346 144.126 16.5293 142.264 16.5293C140.402 16.5293 138.724 16.8346 137.228 17.4451C135.732 18.0251 134.45 18.8645 133.382 19.9634C132.313 21.0318 131.489 22.3444 130.909 23.9011C130.329 25.4274 130.039 27.1368 130.039 29.0293Z" fill="black"/>
<path d="M185.366 40.8425L192.829 17.1704H186.144L181.794 33.196H181.703L177.673 17.1704H171.355L167.417 33.2418H167.325L162.975 17.1704H156.107L163.616 40.8425H170.347L174.377 24.9542H174.468L178.681 40.8425H185.366Z" fill="black"/>
<path d="M195.322 8.15021V40.8425H201.824V8.15021H195.322Z" fill="black"/>
<path d="M222.42 26.4652H211.843C211.873 26.0074 211.965 25.4884 212.118 24.9085C212.301 24.3285 212.591 23.779 212.988 23.2601C213.415 22.7412 213.964 22.3138 214.636 21.9781C215.338 21.6118 216.208 21.4286 217.246 21.4286C218.833 21.4286 220.008 21.856 220.771 22.7107C221.565 23.5654 222.115 24.8169 222.42 26.4652ZM211.843 30.5861H228.922C229.044 28.7546 228.891 26.9994 228.464 25.3205C228.036 23.6417 227.334 22.1459 226.358 20.8334C225.411 19.5208 224.19 18.4829 222.695 17.7198C221.199 16.9262 219.444 16.5293 217.429 16.5293C215.628 16.5293 213.98 16.8498 212.484 17.4909C211.019 18.1319 209.752 19.0171 208.684 20.1466C207.615 21.2455 206.791 22.558 206.211 24.0843C205.631 25.6105 205.341 27.2589 205.341 29.0293C205.341 30.8608 205.616 32.5397 206.165 34.066C206.745 35.5922 207.554 36.9048 208.592 38.0037C209.63 39.1026 210.897 39.9573 212.392 40.5678C213.888 41.1478 215.567 41.4378 217.429 41.4378C220.115 41.4378 222.405 40.8273 224.297 39.6063C226.19 38.3853 227.594 36.3553 228.51 33.5165H222.786C222.572 34.2491 221.992 34.9512 221.046 35.6227C220.1 36.2638 218.97 36.5843 217.658 36.5843C215.826 36.5843 214.422 36.1111 213.445 35.1649C212.469 34.2186 211.934 32.6923 211.843 30.5861Z" fill="black"/>
<path d="M249.124 28.9378C249.124 29.9146 249.032 30.8608 248.849 31.7766C248.666 32.6923 248.361 33.5165 247.933 34.2491C247.506 34.9512 246.926 35.5159 246.194 35.9433C245.491 36.3706 244.606 36.5843 243.538 36.5843C242.531 36.5843 241.661 36.3706 240.928 35.9433C240.226 35.4854 239.631 34.9054 239.142 34.2033C238.684 33.4707 238.349 32.6465 238.135 31.7308C237.921 30.815 237.814 29.8993 237.814 28.9835C237.814 28.0067 237.906 27.0757 238.089 26.1905C238.303 25.2748 238.623 24.4658 239.051 23.7638C239.509 23.0617 240.104 22.497 240.836 22.0696C241.569 21.6423 242.469 21.4286 243.538 21.4286C244.606 21.4286 245.491 21.6423 246.194 22.0696C246.896 22.497 247.46 23.0617 247.888 23.7638C248.346 24.4353 248.666 25.229 248.849 26.1447C249.032 27.0299 249.124 27.961 249.124 28.9378ZM249.216 37.8205V40.8425H255.397V8.15021H248.895V20.055H248.803C248.071 18.895 247.064 18.0251 245.781 17.4451C244.53 16.8346 243.202 16.5293 241.798 16.5293C240.058 16.5293 238.532 16.8804 237.219 17.5824C235.907 18.254 234.808 19.1545 233.922 20.2839C233.068 21.4133 232.411 22.7259 231.954 24.2216C231.526 25.6868 231.313 27.2131 231.313 28.8004C231.313 30.4487 231.526 32.036 231.954 33.5623C232.411 35.0886 233.068 36.4469 233.922 37.6374C234.808 38.7973 235.922 39.7284 237.265 40.4304C238.608 41.102 240.165 41.4378 241.935 41.4378C243.492 41.4378 244.881 41.163 246.102 40.6136C247.353 40.0336 248.361 39.1026 249.124 37.8205H249.216Z" fill="black"/>
<path d="M270.888 35.2564C269.881 35.2564 269.041 35.0428 268.37 34.6154C267.698 34.1881 267.149 33.6386 266.721 32.9671C266.325 32.2955 266.035 31.5476 265.851 30.7235C265.699 29.8688 265.622 29.0141 265.622 28.1594C265.622 27.2741 265.714 26.4347 265.897 25.6411C266.111 24.8169 266.431 24.0995 266.859 23.489C267.317 22.848 267.866 22.3444 268.507 21.9781C269.179 21.6118 269.972 21.4286 270.888 21.4286C271.956 21.4286 272.842 21.627 273.544 22.0238C274.246 22.4207 274.811 22.9549 275.238 23.6264C275.665 24.298 275.97 25.0763 276.154 25.9616C276.337 26.8163 276.428 27.732 276.428 28.7088C276.428 29.5635 276.306 30.3877 276.062 31.1813C275.848 31.9445 275.513 32.6313 275.055 33.2418C274.597 33.8523 274.017 34.3407 273.315 34.707C272.613 35.0733 271.804 35.2564 270.888 35.2564ZM282.61 39.3315V17.1704H276.428V20.3297H276.337C275.543 18.9561 274.551 17.9793 273.361 17.3993C272.201 16.8193 270.842 16.5293 269.285 16.5293C267.637 16.5293 266.172 16.8498 264.89 17.4909C263.638 18.1319 262.585 19.0019 261.731 20.1008C260.876 21.1691 260.22 22.4207 259.762 23.8553C259.334 25.2595 259.121 26.7247 259.121 28.2509C259.121 29.8688 259.304 31.4103 259.67 32.8755C260.067 34.3102 260.677 35.577 261.502 36.6759C262.326 37.7442 263.379 38.5989 264.661 39.24C265.943 39.8505 267.469 40.1557 269.24 40.1557C270.674 40.1557 272.033 39.8657 273.315 39.2857C274.627 38.6752 275.635 37.7442 276.337 36.4927H276.428V39.6063C276.459 41.2851 276.047 42.674 275.192 43.7729C274.368 44.8718 273.04 45.4213 271.209 45.4213C270.049 45.4213 269.026 45.1771 268.141 44.6887C267.256 44.2308 266.66 43.3914 266.355 42.1704H259.899C259.991 43.5135 260.357 44.6581 260.998 45.6044C261.669 46.5812 262.494 47.3749 263.47 47.9854C264.478 48.5959 265.577 49.0385 266.767 49.3132C267.988 49.6185 269.179 49.7711 270.339 49.7711C273.055 49.7711 275.223 49.4048 276.84 48.6722C278.458 47.9396 279.695 47.0391 280.549 45.9707C281.404 44.9329 281.953 43.8034 282.198 42.5824C282.472 41.3614 282.61 40.2778 282.61 39.3315Z" fill="black"/>
<path d="M303.321 26.4652H292.744C292.774 26.0074 292.866 25.4884 293.018 24.9085C293.202 24.3285 293.492 23.779 293.888 23.2601C294.316 22.7412 294.865 22.3138 295.537 21.9781C296.239 21.6118 297.109 21.4286 298.147 21.4286C299.734 21.4286 300.909 21.856 301.672 22.7107C302.466 23.5654 303.015 24.8169 303.321 26.4652ZM292.744 30.5861H309.822C309.945 28.7546 309.792 26.9994 309.365 25.3205C308.937 23.6417 308.235 22.1459 307.258 20.8334C306.312 19.5208 305.091 18.4829 303.595 17.7198C302.1 16.9262 300.344 16.5293 298.33 16.5293C296.529 16.5293 294.88 16.8498 293.385 17.4909C291.92 18.1319 290.653 19.0171 289.584 20.1466C288.516 21.2455 287.692 22.558 287.112 24.0843C286.532 25.6105 286.242 27.2589 286.242 29.0293C286.242 30.8608 286.517 32.5397 287.066 34.066C287.646 35.5922 288.455 36.9048 289.493 38.0037C290.531 39.1026 291.797 39.9573 293.293 40.5678C294.789 41.1478 296.468 41.4378 298.33 41.4378C301.016 41.4378 303.305 40.8273 305.198 39.6063C307.091 38.3853 308.495 36.3553 309.41 33.5165H303.687C303.473 34.2491 302.893 34.9512 301.947 35.6227C301.001 36.2638 299.871 36.5843 298.559 36.5843C296.727 36.5843 295.323 36.1111 294.346 35.1649C293.37 34.2186 292.835 32.6923 292.744 30.5861Z" fill="black"/>
<path d="M326.193 8.15021V40.8425H333.382V27.3352H347.072V21.7491H333.382V14.1942H349.179V8.15021H326.193Z" fill="black"/>
<path d="M374.397 40.8425V17.1704H367.895V29.5788C367.895 31.9903 367.499 33.7302 366.705 34.7986C365.911 35.8364 364.629 36.3553 362.859 36.3553C361.302 36.3553 360.218 35.8822 359.608 34.9359C358.997 33.9591 358.692 32.4939 358.692 30.5403V17.1704H352.19V31.7308C352.19 33.196 352.312 34.5391 352.557 35.7601C352.831 36.9506 353.289 37.9732 353.93 38.8279C354.571 39.652 355.441 40.2931 356.54 40.7509C357.67 41.2088 359.104 41.4378 360.844 41.4378C362.218 41.4378 363.561 41.1325 364.873 40.522C366.186 39.9115 367.254 38.9194 368.079 37.5458H368.216V40.8425H374.397Z" fill="black"/>
<path d="M387.116 17.1704V10.0733H380.614V17.1704H376.676V21.5202H380.614V35.4854C380.614 36.6759 380.812 37.6374 381.209 38.37C381.606 39.1026 382.14 39.6673 382.812 40.0641C383.514 40.461 384.307 40.7204 385.193 40.8425C386.108 40.9951 387.07 41.0715 388.077 41.0715C388.718 41.0715 389.375 41.0562 390.046 41.0257C390.718 40.9951 391.328 40.9341 391.878 40.8425V35.8059C391.572 35.8669 391.252 35.9127 390.916 35.9433C390.58 35.9738 390.229 35.989 389.863 35.989C388.764 35.989 388.032 35.8059 387.665 35.4396C387.299 35.0733 387.116 34.3407 387.116 33.2418V21.5202H391.878V17.1704H387.116Z" fill="black"/>
<path d="M416.72 40.8425V17.1704H410.218V29.5788C410.218 31.9903 409.822 33.7302 409.028 34.7986C408.234 35.8364 406.952 36.3553 405.182 36.3553C403.625 36.3553 402.541 35.8822 401.931 34.9359C401.32 33.9591 401.015 32.4939 401.015 30.5403V17.1704H394.513V31.7308C394.513 33.196 394.635 34.5391 394.88 35.7601C395.154 36.9506 395.612 37.9732 396.253 38.8279C396.894 39.652 397.764 40.2931 398.863 40.7509C399.993 41.2088 401.427 41.4378 403.167 41.4378C404.541 41.4378 405.884 41.1325 407.196 40.522C408.509 39.9115 409.577 38.9194 410.402 37.5458H410.539V40.8425H416.72Z" fill="black"/>
<path d="M421.197 17.1704V40.8425H427.699V30.174C427.699 29.1056 427.806 28.1136 428.019 27.1978C428.233 26.2821 428.584 25.4884 429.073 24.8169C429.591 24.1148 430.263 23.5654 431.087 23.1685C431.911 22.7717 432.919 22.5733 434.109 22.5733C434.506 22.5733 434.918 22.6038 435.345 22.6649C435.773 22.6954 436.139 22.7412 436.444 22.8022V16.7583C435.925 16.6056 435.452 16.5293 435.025 16.5293C434.201 16.5293 433.407 16.6514 432.644 16.8956C431.881 17.1398 431.164 17.4909 430.492 17.9487C429.82 18.3761 429.225 18.9103 428.706 19.5513C428.187 20.1618 427.775 20.8334 427.47 21.566H427.378V17.1704H421.197Z" fill="black"/>
<path d="M453.665 26.4652H443.088C443.118 26.0074 443.21 25.4884 443.363 24.9085C443.546 24.3285 443.836 23.779 444.233 23.2601C444.66 22.7412 445.209 22.3138 445.881 21.9781C446.583 21.6118 447.453 21.4286 448.491 21.4286C450.078 21.4286 451.253 21.856 452.016 22.7107C452.81 23.5654 453.36 24.8169 453.665 26.4652ZM443.088 30.5861H460.167C460.289 28.7546 460.136 26.9994 459.709 25.3205C459.281 23.6417 458.579 22.1459 457.603 20.8334C456.656 19.5208 455.435 18.4829 453.939 17.7198C452.444 16.9262 450.689 16.5293 448.674 16.5293C446.873 16.5293 445.225 16.8498 443.729 17.4909C442.264 18.1319 440.997 19.0171 439.929 20.1466C438.86 21.2455 438.036 22.558 437.456 24.0843C436.876 25.6105 436.586 27.2589 436.586 29.0293C436.586 30.8608 436.861 32.5397 437.41 34.066C437.99 35.5922 438.799 36.9048 439.837 38.0037C440.875 39.1026 442.142 39.9573 443.637 40.5678C445.133 41.1478 446.812 41.4378 448.674 41.4378C451.36 41.4378 453.65 40.8273 455.542 39.6063C457.435 38.3853 458.839 36.3553 459.755 33.5165H454.031C453.817 34.2491 453.237 34.9512 452.291 35.6227C451.345 36.2638 450.215 36.5843 448.903 36.5843C447.071 36.5843 445.667 36.1111 444.69 35.1649C443.714 34.2186 443.179 32.6923 443.088 30.5861Z" fill="black"/>
<path d="M468.602 33.1502H462.42C462.481 34.7375 462.832 36.0654 463.473 37.1337C464.145 38.1716 464.984 39.011 465.992 39.652C467.029 40.2931 468.205 40.7509 469.517 41.0257C470.83 41.3004 472.173 41.4378 473.547 41.4378C474.89 41.4378 476.202 41.3004 477.484 41.0257C478.797 40.7815 479.957 40.3389 480.964 39.6978C481.971 39.0568 482.78 38.2174 483.391 37.1795C484.032 36.1111 484.352 34.7986 484.352 33.2418C484.352 32.1429 484.139 31.2271 483.711 30.4945C483.284 29.7314 482.719 29.1056 482.017 28.6172C481.315 28.0983 480.506 27.6862 479.591 27.381C478.705 27.0757 477.79 26.8163 476.843 26.6026C475.928 26.3889 475.027 26.1905 474.142 26.0074C473.257 25.8242 472.463 25.6258 471.761 25.4121C471.089 25.1679 470.54 24.8627 470.113 24.4964C469.685 24.1301 469.471 23.6569 469.471 23.077C469.471 22.5886 469.594 22.207 469.838 21.9323C470.082 21.627 470.372 21.3981 470.708 21.2454C471.074 21.0928 471.471 21.0013 471.898 20.9707C472.326 20.9097 472.722 20.8792 473.089 20.8792C474.249 20.8792 475.256 21.1081 476.111 21.566C476.965 21.9933 477.439 22.8328 477.53 24.0843H483.711C483.589 22.6191 483.208 21.4133 482.567 20.4671C481.956 19.4903 481.178 18.7119 480.232 18.1319C479.285 17.5519 478.202 17.1398 476.981 16.8956C475.79 16.6514 474.554 16.5293 473.272 16.5293C471.99 16.5293 470.738 16.6514 469.517 16.8956C468.296 17.1093 467.197 17.5061 466.221 18.0861C465.244 18.6356 464.45 19.3987 463.84 20.3755C463.26 21.3523 462.97 22.6038 462.97 24.1301C462.97 25.1679 463.183 26.0531 463.611 26.7857C464.038 27.4878 464.603 28.0831 465.305 28.5715C466.007 29.0293 466.801 29.4109 467.686 29.7161C468.602 29.9909 469.533 30.2351 470.479 30.4487C472.799 30.9371 474.6 31.4255 475.882 31.9139C477.194 32.4023 477.851 33.135 477.851 34.1118C477.851 34.6917 477.713 35.1801 477.439 35.577C477.164 35.9433 476.813 36.2485 476.385 36.4927C475.989 36.7064 475.531 36.8743 475.012 36.9964C474.523 37.0879 474.05 37.1337 473.592 37.1337C472.951 37.1337 472.326 37.0574 471.715 36.9048C471.135 36.7522 470.616 36.5232 470.158 36.218C469.7 35.8822 469.319 35.4701 469.014 34.9817C468.739 34.4628 468.602 33.8523 468.602 33.1502Z" fill="black"/>
<path d="M524.299 37.1337L525.031 40.8425H529.61V23.1685H515.874V28.5257H523.108C522.895 30.815 522.132 32.5702 520.819 33.7912C519.537 34.9817 517.705 35.577 515.324 35.577C513.707 35.577 512.333 35.2717 511.204 34.6612C510.074 34.0202 509.158 33.1807 508.456 32.1429C507.754 31.105 507.235 29.9451 506.9 28.663C506.594 27.3505 506.442 26.0074 506.442 24.6337C506.442 23.1991 506.594 21.8102 506.9 20.4671C507.235 19.124 507.754 17.9335 508.456 16.8956C509.158 15.8273 510.074 14.9878 511.204 14.3773C512.333 13.7363 513.707 13.4158 515.324 13.4158C517.064 13.4158 518.545 13.8737 519.766 14.7894C520.987 15.7052 521.811 17.0788 522.238 18.9103H529.107C528.923 17.0483 528.42 15.3999 527.596 13.9652C526.771 12.5306 525.718 11.3248 524.436 10.348C523.185 9.37122 521.765 8.63861 520.178 8.15021C518.621 7.63129 517.003 7.37183 515.324 7.37183C512.821 7.37183 510.563 7.81444 508.548 8.69966C506.564 9.58489 504.885 10.8059 503.511 12.3627C502.138 13.9194 501.085 15.7509 500.352 17.8572C499.619 19.9329 499.253 22.1917 499.253 24.6337C499.253 27.0147 499.619 29.243 500.352 31.3187C501.085 33.3639 502.138 35.1496 503.511 36.6759C504.885 38.2021 506.564 39.4078 508.548 40.2931C510.563 41.1478 512.821 41.5751 515.324 41.5751C516.912 41.5751 518.484 41.2546 520.041 40.6136C521.597 39.942 523.017 38.7821 524.299 37.1337Z" fill="black"/>
<path d="M534.271 17.1704V40.8425H540.773V30.174C540.773 29.1056 540.88 28.1136 541.093 27.1978C541.307 26.2821 541.658 25.4884 542.146 24.8169C542.665 24.1148 543.337 23.5654 544.161 23.1685C544.985 22.7717 545.992 22.5733 547.183 22.5733C547.58 22.5733 547.992 22.6038 548.419 22.6649C548.847 22.6954 549.213 22.7412 549.518 22.8022V16.7583C548.999 16.6056 548.526 16.5293 548.099 16.5293C547.275 16.5293 546.481 16.6514 545.718 16.8956C544.955 17.1398 544.237 17.4909 543.566 17.9487C542.894 18.3761 542.299 18.9103 541.78 19.5513C541.261 20.1618 540.849 20.8334 540.544 21.566H540.452V17.1704H534.271Z" fill="black"/>
<path d="M556.574 29.0293C556.574 28.0831 556.665 27.152 556.848 26.2363C557.032 25.3205 557.337 24.5116 557.764 23.8096C558.222 23.1075 558.817 22.5428 559.55 22.1154C560.282 21.6575 561.198 21.4286 562.297 21.4286C563.396 21.4286 564.312 21.6575 565.044 22.1154C565.808 22.5428 566.403 23.1075 566.83 23.8096C567.288 24.5116 567.609 25.3205 567.792 26.2363C567.975 27.152 568.066 28.0831 568.066 29.0293C568.066 29.9756 567.975 30.9066 567.792 31.8224C567.609 32.7076 567.288 33.5165 566.83 34.2491C566.403 34.9512 565.808 35.5159 565.044 35.9433C564.312 36.3706 563.396 36.5843 562.297 36.5843C561.198 36.5843 560.282 36.3706 559.55 35.9433C558.817 35.5159 558.222 34.9512 557.764 34.2491C557.337 33.5165 557.032 32.7076 556.848 31.8224C556.665 30.9066 556.574 29.9756 556.574 29.0293ZM550.072 29.0293C550.072 30.9219 550.362 32.6313 550.942 34.1575C551.522 35.6838 552.346 36.9964 553.414 38.0953C554.483 39.1636 555.765 39.9878 557.261 40.5678C558.756 41.1478 560.435 41.4378 562.297 41.4378C564.159 41.4378 565.838 41.1478 567.334 40.5678C568.86 39.9878 570.157 39.1636 571.226 38.0953C572.294 36.9964 573.118 35.6838 573.698 34.1575C574.278 32.6313 574.568 30.9219 574.568 29.0293C574.568 27.1368 574.278 25.4274 573.698 23.9011C573.118 22.3444 572.294 21.0318 571.226 19.9634C570.157 18.8645 568.86 18.0251 567.334 17.4451C565.838 16.8346 564.159 16.5293 562.297 16.5293C560.435 16.5293 558.756 16.8346 557.261 17.4451C555.765 18.0251 554.483 18.8645 553.414 19.9634C552.346 21.0318 551.522 22.3444 550.942 23.9011C550.362 25.4274 550.072 27.1368 550.072 29.0293Z" fill="black"/>
<path d="M600.545 40.8425V17.1704H594.043V29.5788C594.043 31.9903 593.646 33.7302 592.852 34.7986C592.059 35.8364 590.777 36.3553 589.006 36.3553C587.45 36.3553 586.366 35.8822 585.755 34.9359C585.145 33.9591 584.84 32.4939 584.84 30.5403V17.1704H578.338V31.7308C578.338 33.196 578.46 34.5391 578.704 35.7601C578.979 36.9506 579.437 37.9732 580.078 38.8279C580.719 39.652 581.589 40.2931 582.688 40.7509C583.817 41.2088 585.252 41.4378 586.992 41.4378C588.365 41.4378 589.708 41.1325 591.021 40.522C592.334 39.9115 593.402 38.9194 594.226 37.5458H594.363V40.8425H600.545Z" fill="black"/>
<path d="M616.972 36.5843C615.934 36.5843 615.049 36.3706 614.316 35.9433C613.584 35.5159 612.989 34.9665 612.531 34.2949C612.103 33.5928 611.783 32.7839 611.569 31.8682C611.386 30.9524 611.294 30.0214 611.294 29.0751C611.294 28.0983 611.386 27.152 611.569 26.2363C611.752 25.3205 612.058 24.5116 612.485 23.8096C612.943 23.1075 613.523 22.5428 614.225 22.1154C614.957 21.6575 615.858 21.4286 616.926 21.4286C617.964 21.4286 618.834 21.6575 619.536 22.1154C620.269 22.5428 620.864 23.1227 621.322 23.8553C621.78 24.5574 622.1 25.3663 622.283 26.2821C622.497 27.1978 622.604 28.1288 622.604 29.0751C622.604 30.0214 622.512 30.9524 622.329 31.8682C622.146 32.7839 621.826 33.5928 621.368 34.2949C620.94 34.9665 620.36 35.5159 619.628 35.9433C618.926 36.3706 618.041 36.5843 616.972 36.5843ZM605.022 17.1704V49.1301H611.523V37.9121H611.615C612.409 39.0721 613.416 39.9573 614.637 40.5678C615.888 41.1478 617.247 41.4378 618.712 41.4378C620.452 41.4378 621.963 41.102 623.245 40.4304C624.558 39.7589 625.641 38.8584 626.496 37.729C627.381 36.5995 628.037 35.3022 628.465 33.837C628.892 32.3718 629.106 30.8456 629.106 29.2583C629.106 27.5794 628.892 25.9768 628.465 24.4506C628.037 22.8938 627.381 21.5354 626.496 20.3755C625.611 19.2155 624.497 18.2845 623.153 17.5824C621.81 16.8804 620.208 16.5293 618.346 16.5293C616.881 16.5293 615.537 16.8193 614.316 17.3993C613.095 17.9793 612.088 18.9103 611.294 20.1923H611.203V17.1704H605.022Z" fill="black"/>
</g>
<defs>
<clipPath id="clip0">
<rect x="0.805908" width="628.388" height="50" fill="white"/>
</clipPath>
</defs>
</svg>
