<svg width="485" height="50" viewBox="0 0 485 50" fill="none" xmlns="http://www.w3.org/2000/svg">
<g clip-path="url(#clip0_180_2)">
<path fill-rule="evenodd" clip-rule="evenodd" d="M0.806641 24.9906L23.2956 0H32.0361L9.5472 24.9906L32.0361 49.9812H23.2956L0.806641 24.9906Z" fill="black"/>
<path fill-rule="evenodd" clip-rule="evenodd" d="M18.2871 24.9906L21.2107 21.7418H34.1198L27.6652 14.5693L32.0355 9.71289L45.7839 24.9906L32.0355 40.2683L27.6652 35.4119L34.1198 28.2394H21.2107L18.2871 24.9906Z" fill="black"/>
<path d="M72.1895 8.15015V40.8424H79.3782V30.3113L83.499 26.1446L93.3434 40.8424H102.364L88.3525 21.0622L101.127 8.15015H92.1529L79.3782 21.7032V8.15015H72.1895Z" fill="black"/>
<path d="M104.088 17.1704V40.8425H110.59V28.4341C110.59 26.0226 110.987 24.298 111.78 23.2601C112.574 22.1917 113.856 21.6575 115.626 21.6575C117.183 21.6575 118.267 22.1459 118.877 23.1227C119.488 24.069 119.793 25.519 119.793 27.4726V40.8425H126.295V26.2821C126.295 24.8169 126.158 23.489 125.883 22.2986C125.639 21.0776 125.196 20.055 124.555 19.2308C123.914 18.3761 123.029 17.7198 121.899 17.2619C120.8 16.7735 119.381 16.5293 117.641 16.5293C116.267 16.5293 114.924 16.8498 113.612 17.4909C112.299 18.1014 111.231 19.0934 110.407 20.4671H110.269V17.1704H104.088Z" fill="black"/>
<path d="M136.541 29.0293C136.541 28.0831 136.633 27.152 136.816 26.2363C136.999 25.3205 137.304 24.5116 137.731 23.8096C138.189 23.1075 138.785 22.5428 139.517 22.1154C140.25 21.6575 141.166 21.4286 142.264 21.4286C143.363 21.4286 144.279 21.6575 145.012 22.1154C145.775 22.5428 146.37 23.1075 146.797 23.8096C147.255 24.5116 147.576 25.3205 147.759 26.2363C147.942 27.152 148.034 28.0831 148.034 29.0293C148.034 29.9756 147.942 30.9066 147.759 31.8224C147.576 32.7076 147.255 33.5165 146.797 34.2491C146.37 34.9512 145.775 35.5159 145.012 35.9433C144.279 36.3706 143.363 36.5843 142.264 36.5843C141.166 36.5843 140.25 36.3706 139.517 35.9433C138.785 35.5159 138.189 34.9512 137.731 34.2491C137.304 33.5165 136.999 32.7076 136.816 31.8224C136.633 30.9066 136.541 29.9756 136.541 29.0293ZM130.039 29.0293C130.039 30.9219 130.329 32.6313 130.909 34.1575C131.489 35.6838 132.313 36.9964 133.382 38.0953C134.45 39.1636 135.732 39.9878 137.228 40.5678C138.724 41.1478 140.402 41.4378 142.264 41.4378C144.126 41.4378 145.805 41.1478 147.301 40.5678C148.827 39.9878 150.125 39.1636 151.193 38.0953C152.261 36.9964 153.086 35.6838 153.666 34.1575C154.245 32.6313 154.535 30.9219 154.535 29.0293C154.535 27.1368 154.245 25.4274 153.666 23.9011C153.086 22.3444 152.261 21.0318 151.193 19.9634C150.125 18.8645 148.827 18.0251 147.301 17.4451C145.805 16.8346 144.126 16.5293 142.264 16.5293C140.402 16.5293 138.724 16.8346 137.228 17.4451C135.732 18.0251 134.45 18.8645 133.382 19.9634C132.313 21.0318 131.489 22.3444 130.909 23.9011C130.329 25.4274 130.039 27.1368 130.039 29.0293Z" fill="black"/>
<path d="M185.366 40.8425L192.829 17.1704H186.144L181.794 33.196H181.703L177.673 17.1704H171.355L167.417 33.2418H167.325L162.975 17.1704H156.107L163.616 40.8425H170.347L174.377 24.9542H174.468L178.681 40.8425H185.366Z" fill="black"/>
<path d="M195.322 8.15015V40.8424H201.824V8.15015H195.322Z" fill="black"/>
<path d="M222.421 26.4652H211.844C211.874 26.0074 211.966 25.4884 212.119 24.9085C212.302 24.3285 212.592 23.779 212.989 23.2601C213.416 22.7412 213.965 22.3138 214.637 21.9781C215.339 21.6118 216.209 21.4286 217.247 21.4286C218.834 21.4286 220.009 21.856 220.772 22.7107C221.566 23.5654 222.116 24.8169 222.421 26.4652ZM211.844 30.5861H228.923C229.045 28.7546 228.892 26.9994 228.465 25.3205C228.037 23.6417 227.335 22.1459 226.359 20.8334C225.412 19.5208 224.191 18.4829 222.696 17.7198C221.2 16.9262 219.445 16.5293 217.43 16.5293C215.629 16.5293 213.981 16.8498 212.485 17.4909C211.02 18.1319 209.753 19.0171 208.685 20.1466C207.616 21.2455 206.792 22.558 206.212 24.0843C205.632 25.6105 205.342 27.2589 205.342 29.0293C205.342 30.8608 205.617 32.5397 206.166 34.066C206.746 35.5922 207.555 36.9048 208.593 38.0037C209.631 39.1026 210.898 39.9573 212.393 40.5678C213.889 41.1478 215.568 41.4378 217.43 41.4378C220.116 41.4378 222.406 40.8273 224.298 39.6063C226.191 38.3853 227.595 36.3553 228.511 33.5165H222.787C222.573 34.2491 221.993 34.9512 221.047 35.6227C220.101 36.2638 218.971 36.5843 217.659 36.5843C215.827 36.5843 214.423 36.1111 213.446 35.1649C212.47 34.2186 211.935 32.6923 211.844 30.5861Z" fill="black"/>
<path d="M249.125 28.9377C249.125 29.9145 249.033 30.8607 248.85 31.7765C248.667 32.6922 248.362 33.5164 247.934 34.249C247.507 34.9511 246.927 35.5158 246.195 35.9432C245.492 36.3705 244.607 36.5842 243.539 36.5842C242.532 36.5842 241.662 36.3705 240.929 35.9432C240.227 35.4853 239.632 34.9053 239.143 34.2032C238.685 33.4706 238.35 32.6464 238.136 31.7307C237.922 30.8149 237.815 29.8992 237.815 28.9834C237.815 28.0066 237.907 27.0756 238.09 26.1904C238.304 25.2747 238.624 24.4657 239.052 23.7637C239.51 23.0616 240.105 22.4969 240.837 22.0695C241.57 21.6422 242.47 21.4285 243.539 21.4285C244.607 21.4285 245.492 21.6422 246.195 22.0695C246.897 22.4969 247.461 23.0616 247.889 23.7637C248.347 24.4352 248.667 25.2289 248.85 26.1446C249.033 27.0298 249.125 27.9609 249.125 28.9377ZM249.217 37.8204V40.8424H255.398V8.15015H248.896V20.0549H248.804C248.072 18.8949 247.065 18.025 245.782 17.445C244.531 16.8345 243.203 16.5292 241.799 16.5292C240.059 16.5292 238.533 16.8803 237.22 17.5823C235.908 18.2539 234.809 19.1544 233.923 20.2838C233.069 21.4132 232.412 22.7258 231.955 24.2215C231.527 25.6867 231.314 27.213 231.314 28.8003C231.314 30.4486 231.527 32.0359 231.955 33.5622C232.412 35.0885 233.069 36.4468 233.923 37.6373C234.809 38.7972 235.923 39.7283 237.266 40.4303C238.609 41.1019 240.166 41.4377 241.936 41.4377C243.493 41.4377 244.882 41.1629 246.103 40.6135C247.354 40.0335 248.362 39.1025 249.125 37.8204H249.217Z" fill="black"/>
<path d="M270.888 35.2564C269.881 35.2564 269.041 35.0428 268.37 34.6154C267.698 34.1881 267.149 33.6386 266.721 32.9671C266.325 32.2955 266.035 31.5476 265.851 30.7235C265.699 29.8688 265.622 29.0141 265.622 28.1594C265.622 27.2741 265.714 26.4347 265.897 25.6411C266.111 24.8169 266.431 24.0995 266.859 23.489C267.317 22.848 267.866 22.3444 268.507 21.9781C269.179 21.6118 269.972 21.4286 270.888 21.4286C271.956 21.4286 272.842 21.627 273.544 22.0238C274.246 22.4207 274.811 22.9549 275.238 23.6264C275.665 24.298 275.97 25.0763 276.154 25.9616C276.337 26.8163 276.428 27.732 276.428 28.7088C276.428 29.5635 276.306 30.3877 276.062 31.1813C275.848 31.9445 275.513 32.6313 275.055 33.2418C274.597 33.8523 274.017 34.3407 273.315 34.707C272.613 35.0733 271.804 35.2564 270.888 35.2564ZM282.61 39.3315V17.1704H276.428V20.3297H276.337C275.543 18.9561 274.551 17.9793 273.361 17.3993C272.201 16.8193 270.842 16.5293 269.285 16.5293C267.637 16.5293 266.172 16.8498 264.89 17.4909C263.638 18.1319 262.585 19.0019 261.731 20.1008C260.876 21.1691 260.22 22.4207 259.762 23.8553C259.334 25.2595 259.121 26.7247 259.121 28.2509C259.121 29.8688 259.304 31.4103 259.67 32.8755C260.067 34.3102 260.677 35.577 261.502 36.6759C262.326 37.7442 263.379 38.5989 264.661 39.24C265.943 39.8505 267.469 40.1557 269.24 40.1557C270.674 40.1557 272.033 39.8657 273.315 39.2857C274.627 38.6752 275.635 37.7442 276.337 36.4927H276.428V39.6063C276.459 41.2851 276.047 42.674 275.192 43.7729C274.368 44.8718 273.04 45.4213 271.209 45.4213C270.049 45.4213 269.026 45.1771 268.141 44.6887C267.256 44.2308 266.66 43.3914 266.355 42.1704H259.899C259.991 43.5135 260.357 44.6581 260.998 45.6044C261.669 46.5812 262.494 47.3749 263.47 47.9854C264.478 48.5959 265.577 49.0385 266.767 49.3132C267.988 49.6185 269.179 49.7711 270.339 49.7711C273.055 49.7711 275.223 49.4048 276.84 48.6722C278.458 47.9396 279.695 47.0391 280.549 45.9707C281.404 44.9329 281.953 43.8034 282.198 42.5824C282.472 41.3614 282.61 40.2778 282.61 39.3315Z" fill="black"/>
<path d="M303.321 26.4652H292.744C292.774 26.0074 292.866 25.4884 293.018 24.9085C293.202 24.3285 293.492 23.779 293.888 23.2601C294.316 22.7412 294.865 22.3138 295.537 21.9781C296.239 21.6118 297.109 21.4286 298.147 21.4286C299.734 21.4286 300.909 21.856 301.672 22.7107C302.466 23.5654 303.015 24.8169 303.321 26.4652ZM292.744 30.5861H309.822C309.945 28.7546 309.792 26.9994 309.365 25.3205C308.937 23.6417 308.235 22.1459 307.258 20.8334C306.312 19.5208 305.091 18.4829 303.595 17.7198C302.1 16.9262 300.344 16.5293 298.33 16.5293C296.529 16.5293 294.88 16.8498 293.385 17.4909C291.92 18.1319 290.653 19.0171 289.584 20.1466C288.516 21.2455 287.692 22.558 287.112 24.0843C286.532 25.6105 286.242 27.2589 286.242 29.0293C286.242 30.8608 286.517 32.5397 287.066 34.066C287.646 35.5922 288.455 36.9048 289.493 38.0037C290.531 39.1026 291.797 39.9573 293.293 40.5678C294.789 41.1478 296.468 41.4378 298.33 41.4378C301.016 41.4378 303.305 40.8273 305.198 39.6063C307.091 38.3853 308.495 36.3553 309.41 33.5165H303.687C303.473 34.2491 302.893 34.9512 301.947 35.6227C301.001 36.2638 299.871 36.5843 298.559 36.5843C296.727 36.5843 295.323 36.1111 294.346 35.1649C293.37 34.2186 292.835 32.6923 292.744 30.5861Z" fill="black"/>
<path d="M326.193 8.15015V40.8424H333.382V27.3351H347.072V21.749H333.382V14.1941H349.179V8.15015H326.193Z" fill="black"/>
<path d="M374.398 40.8425V17.1704H367.896V29.5788C367.896 31.9903 367.5 33.7302 366.706 34.7986C365.912 35.8364 364.63 36.3553 362.86 36.3553C361.303 36.3553 360.219 35.8822 359.609 34.9359C358.998 33.9591 358.693 32.4939 358.693 30.5403V17.1704H352.191V31.7308C352.191 33.196 352.313 34.5391 352.558 35.7601C352.832 36.9506 353.29 37.9732 353.931 38.8279C354.572 39.652 355.442 40.2931 356.541 40.7509C357.671 41.2088 359.105 41.4378 360.845 41.4378C362.219 41.4378 363.562 41.1325 364.874 40.522C366.187 39.9115 367.255 38.9194 368.08 37.5458H368.217V40.8425H374.398Z" fill="black"/>
<path d="M387.116 17.1703V10.0732H380.614V17.1703H376.676V21.5201H380.614V35.4853C380.614 36.6758 380.812 37.6373 381.209 38.3699C381.606 39.1025 382.14 39.6672 382.812 40.064C383.514 40.4609 384.307 40.7203 385.193 40.8424C386.108 40.995 387.07 41.0714 388.077 41.0714C388.718 41.0714 389.375 41.0561 390.046 41.0256C390.718 40.995 391.328 40.934 391.878 40.8424V35.8058C391.572 35.8668 391.252 35.9126 390.916 35.9432C390.58 35.9737 390.229 35.9889 389.863 35.9889C388.764 35.9889 388.032 35.8058 387.665 35.4395C387.299 35.0732 387.116 34.3406 387.116 33.2417V21.5201H391.878V17.1703H387.116Z" fill="black"/>
<path d="M416.721 40.8425V17.1704H410.219V29.5788C410.219 31.9903 409.823 33.7302 409.029 34.7986C408.235 35.8364 406.953 36.3553 405.183 36.3553C403.626 36.3553 402.542 35.8822 401.932 34.9359C401.321 33.9591 401.016 32.4939 401.016 30.5403V17.1704H394.514V31.7308C394.514 33.196 394.636 34.5391 394.881 35.7601C395.155 36.9506 395.613 37.9732 396.254 38.8279C396.895 39.652 397.765 40.2931 398.864 40.7509C399.994 41.2088 401.428 41.4378 403.168 41.4378C404.542 41.4378 405.885 41.1325 407.197 40.522C408.51 39.9115 409.578 38.9194 410.403 37.5458H410.54V40.8425H416.721Z" fill="black"/>
<path d="M421.197 17.1704V40.8425H427.699V30.174C427.699 29.1056 427.806 28.1136 428.019 27.1978C428.233 26.2821 428.584 25.4884 429.073 24.8169C429.591 24.1148 430.263 23.5654 431.087 23.1685C431.911 22.7717 432.919 22.5733 434.109 22.5733C434.506 22.5733 434.918 22.6038 435.345 22.6649C435.773 22.6954 436.139 22.7412 436.444 22.8022V16.7583C435.925 16.6056 435.452 16.5293 435.025 16.5293C434.201 16.5293 433.407 16.6514 432.644 16.8956C431.881 17.1398 431.164 17.4909 430.492 17.9487C429.82 18.3761 429.225 18.9103 428.706 19.5513C428.187 20.1618 427.775 20.8334 427.47 21.566H427.378V17.1704H421.197Z" fill="black"/>
<path d="M453.665 26.4652H443.088C443.118 26.0074 443.21 25.4884 443.363 24.9085C443.546 24.3285 443.836 23.779 444.233 23.2601C444.66 22.7412 445.209 22.3138 445.881 21.9781C446.583 21.6118 447.453 21.4286 448.491 21.4286C450.078 21.4286 451.253 21.856 452.016 22.7107C452.81 23.5654 453.36 24.8169 453.665 26.4652ZM443.088 30.5861H460.167C460.289 28.7546 460.136 26.9994 459.709 25.3205C459.281 23.6417 458.579 22.1459 457.603 20.8334C456.656 19.5208 455.435 18.4829 453.939 17.7198C452.444 16.9262 450.689 16.5293 448.674 16.5293C446.873 16.5293 445.225 16.8498 443.729 17.4909C442.264 18.1319 440.997 19.0171 439.929 20.1466C438.86 21.2455 438.036 22.558 437.456 24.0843C436.876 25.6105 436.586 27.2589 436.586 29.0293C436.586 30.8608 436.861 32.5397 437.41 34.066C437.99 35.5922 438.799 36.9048 439.837 38.0037C440.875 39.1026 442.142 39.9573 443.637 40.5678C445.133 41.1478 446.812 41.4378 448.674 41.4378C451.36 41.4378 453.65 40.8273 455.542 39.6063C457.435 38.3853 458.839 36.3553 459.755 33.5165H454.031C453.817 34.2491 453.237 34.9512 452.291 35.6227C451.345 36.2638 450.215 36.5843 448.903 36.5843C447.071 36.5843 445.667 36.1111 444.69 35.1649C443.714 34.2186 443.179 32.6923 443.088 30.5861Z" fill="black"/>
<path d="M468.602 33.1502H462.42C462.481 34.7375 462.832 36.0654 463.473 37.1337C464.145 38.1716 464.984 39.011 465.992 39.652C467.029 40.2931 468.205 40.7509 469.517 41.0257C470.83 41.3004 472.173 41.4378 473.547 41.4378C474.89 41.4378 476.202 41.3004 477.484 41.0257C478.797 40.7815 479.957 40.3389 480.964 39.6978C481.971 39.0568 482.78 38.2174 483.391 37.1795C484.032 36.1111 484.352 34.7986 484.352 33.2418C484.352 32.1429 484.139 31.2271 483.711 30.4945C483.284 29.7314 482.719 29.1056 482.017 28.6172C481.315 28.0983 480.506 27.6862 479.591 27.381C478.705 27.0757 477.79 26.8163 476.843 26.6026C475.928 26.3889 475.027 26.1905 474.142 26.0074C473.257 25.8242 472.463 25.6258 471.761 25.4121C471.089 25.1679 470.54 24.8627 470.113 24.4964C469.685 24.1301 469.471 23.6569 469.471 23.077C469.471 22.5886 469.594 22.207 469.838 21.9323C470.082 21.627 470.372 21.3981 470.708 21.2454C471.074 21.0928 471.471 21.0013 471.898 20.9707C472.326 20.9097 472.722 20.8792 473.089 20.8792C474.249 20.8792 475.256 21.1081 476.111 21.566C476.965 21.9933 477.439 22.8328 477.53 24.0843H483.711C483.589 22.6191 483.208 21.4133 482.567 20.4671C481.956 19.4903 481.178 18.7119 480.232 18.1319C479.285 17.5519 478.202 17.1398 476.981 16.8956C475.79 16.6514 474.554 16.5293 473.272 16.5293C471.99 16.5293 470.738 16.6514 469.517 16.8956C468.296 17.1093 467.197 17.5061 466.221 18.0861C465.244 18.6356 464.45 19.3987 463.84 20.3755C463.26 21.3523 462.97 22.6038 462.97 24.1301C462.97 25.1679 463.183 26.0531 463.611 26.7857C464.038 27.4878 464.603 28.0831 465.305 28.5715C466.007 29.0293 466.801 29.4109 467.686 29.7161C468.602 29.9909 469.533 30.2351 470.479 30.4487C472.799 30.9371 474.6 31.4255 475.882 31.9139C477.194 32.4023 477.851 33.135 477.851 34.1118C477.851 34.6917 477.713 35.1801 477.439 35.577C477.164 35.9433 476.813 36.2485 476.385 36.4927C475.989 36.7064 475.531 36.8743 475.012 36.9964C474.523 37.0879 474.05 37.1337 473.592 37.1337C472.951 37.1337 472.326 37.0574 471.715 36.9048C471.135 36.7522 470.616 36.5232 470.158 36.218C469.7 35.8822 469.319 35.4701 469.014 34.9817C468.739 34.4628 468.602 33.8523 468.602 33.1502Z" fill="black"/>
</g>
<defs>
<clipPath id="clip0_180_2">
<rect width="485" height="50" fill="white"/>
</clipPath>
</defs>
</svg>
