<?xml version="1.0" encoding="UTF-8"?>
<svg width="493px" height="117px" viewBox="0 0 493 117" version="1.1" xmlns="http://www.w3.org/2000/svg" xmlns:xlink="http://www.w3.org/1999/xlink">
    <g id="Page-1" stroke="none" stroke-width="1" fill="none" fill-rule="evenodd">
        <g id="Refinements-Copy" transform="translate(-212.000000, -339.000000)" fill="#FFFFFF">
            <g id="Group" transform="translate(212.000000, 339.000000)">
                <path d="M32.6215308,61.3439394 C21.8177617,58.8776011 14,49.2202072 14,37.9733333 C14,24.7345761 24.7438181,14 38,14 C51.2561819,14 62,24.7345761 62,37.9733333 L62,108.5 L76,116.5 L76,37.9733333 C76,16.9998913 58.9854726,0 38,0 C17.0145274,0 0,16.9998913 0,37.9733333 C0,55.9835629 12.6399527,71.4069352 30.1481168,75.1330493 C30.9801311,75.2979615 31.8029219,75.3462648 32.8630519,75.34602 L32.859831,61.3990786 C32.7678281,61.3460416 32.6879465,61.3452583 32.6215308,61.3439394 Z M32.5085817,61.3407277 L32.4745947,61.339395 C32.4688063,61.3389691 32.4633805,61.338615 32.4582493,61.3383137 C32.4727244,61.3391635 32.4895298,61.3399737 32.5085817,61.3407277 Z M40.5,38 L54.5,38 L54.5,104 L40.5,96 L40.5,38 Z" id="Combined-Shape" fill-rule="nonzero"></path>
                <path d="M122.9,100 L122.9,21.9 L155.24,21.9 C158.61335,21.9 161.711653,22.6149929 164.535,24.045 C167.358347,25.4750072 169.796656,27.3449885 171.85,29.655 C173.903344,31.9650115 175.498328,34.586652 176.635,37.52 C177.771672,40.453348 178.34,43.4233183 178.34,46.43 C178.34,49.6566828 177.808339,52.7549852 176.745,55.725 C175.681661,58.6950149 174.16001,61.3166553 172.18,63.59 C170.19999,65.8633447 167.835014,67.6966597 165.085,69.09 C162.334986,70.4833403 159.27335,71.18 155.9,71.18 L130.49,71.18 L130.49,100 L122.9,100 Z M130.49,64.36 L155.46,64.36 C157.733345,64.36 159.804991,63.865005 161.675,62.875 C163.545009,61.884995 165.139993,60.5650083 166.46,58.915 C167.780007,57.2649917 168.806663,55.3583441 169.54,53.195 C170.273337,51.0316558 170.64,48.7766784 170.64,46.43 C170.64,44.0099879 170.218338,41.7183442 169.375,39.555 C168.531662,37.3916559 167.395007,35.5033414 165.965,33.89 C164.534993,32.2766586 162.848343,31.0116713 160.905,30.095 C158.961657,29.1783287 156.926677,28.72 154.8,28.72 L130.49,28.72 L130.49,64.36 Z M203.247531,101.1 C197.234168,101.1 192.687546,99.0283541 189.607531,94.885 C186.527516,90.741646 184.987531,84.5633744 184.987531,76.35 L184.987531,42.69 L192.467531,42.69 L192.467531,75.03 C192.467531,88.0100649 196.904153,94.5 205.777531,94.5 C207.977542,94.5 210.140854,94.133337 212.267531,93.4 C214.394208,92.666663 216.355855,91.6033403 218.152531,90.21 C219.949207,88.8166597 221.562524,87.1666762 222.992531,85.26 C224.422538,83.3533238 225.577527,81.1900121 226.457531,78.77 L226.457531,42.69 L233.937531,42.69 L233.937531,90.32 C233.937531,92.3733436 234.854188,93.4 236.687531,93.4 L236.687531,100 C235.220857,100.220001 234.194201,100.33 233.607531,100.33 C231.920856,100.33 230.472537,99.8166718 229.262531,98.79 C228.052525,97.7633282 227.447531,96.4800077 227.447531,94.94 L227.447531,87.02 C224.880851,91.4933557 221.470886,94.958321 217.217531,97.415 C212.964176,99.8716789 208.307556,101.1 203.247531,101.1 Z M275.125062,101.1 C270.651706,101.1 266.508414,99.9633447 262.695062,97.69 C258.88171,95.4166553 255.911739,92.4833513 253.785062,88.89 L253.785062,100 L247.075062,100 L247.075062,19.7 L254.555062,19.7 L254.555062,54.68 C257.121741,50.7933139 260.201711,47.6583453 263.795062,45.275 C267.388413,42.8916547 271.605038,41.7 276.445062,41.7 C280.405082,41.7 283.998379,42.5433249 287.225062,44.23 C290.451745,45.9166751 293.183384,48.1716525 295.420062,50.995 C297.65674,53.8183475 299.380056,57.0083156 300.590062,60.565 C301.800068,64.1216844 302.405062,67.7699813 302.405062,71.51 C302.405062,75.5433535 301.708402,79.3566487 300.315062,82.95 C298.921722,86.5433513 296.996741,89.67832 294.540062,92.355 C292.083383,95.03168 289.186745,97.1583255 285.850062,98.735 C282.513379,100.311675 278.938414,101.1 275.125062,101.1 Z M273.365062,94.5 C276.518411,94.5 279.396716,93.8583398 282.000062,92.575 C284.603408,91.2916603 286.840053,89.5683442 288.710062,87.405 C290.580071,85.2416559 292.046723,82.7850137 293.110062,80.035 C294.173401,77.2849862 294.705062,74.443348 294.705062,71.51 C294.705062,68.5033183 294.210067,65.6066806 293.220062,62.82 C292.230057,60.0333194 290.836738,57.5583441 289.040062,55.395 C287.243386,53.2316558 285.098408,51.5083398 282.605062,50.225 C280.111716,48.9416602 277.361744,48.3 274.355062,48.3 C272.081717,48.3 269.955072,48.6849962 267.975062,49.455 C265.995052,50.2250039 264.161737,51.2699934 262.475062,52.59 C260.788387,53.9100066 259.266735,55.4316581 257.910062,57.155 C256.553389,58.8783419 255.435066,60.6933238 254.555062,62.6 L254.555062,80.42 C254.848397,82.4000099 255.636722,84.2516581 256.920062,85.975 C258.203402,87.6983419 259.761719,89.1833271 261.595062,90.43 C263.428404,91.6766729 265.371718,92.666663 267.425062,93.4 C269.478406,94.133337 271.458386,94.5 273.365062,94.5 Z M312.902593,100 L312.902593,21.9 L345.242593,21.9 C348.615943,21.9 351.714246,22.6149929 354.537593,24.045 C357.36094,25.4750072 359.799249,27.3449885 361.852593,29.655 C363.905937,31.9650115 365.500921,34.586652 366.637593,37.52 C367.774265,40.453348 368.342593,43.4233183 368.342593,46.43 C368.342593,49.6566828 367.810932,52.7549852 366.747593,55.725 C365.684254,58.6950149 364.162603,61.3166553 362.182593,63.59 C360.202583,65.8633447 357.837607,67.6966597 355.087593,69.09 C352.337579,70.4833403 349.275943,71.18 345.902593,71.18 L320.492593,71.18 L320.492593,100 L312.902593,100 Z M320.492593,64.36 L345.462593,64.36 C347.735938,64.36 349.807584,63.865005 351.677593,62.875 C353.547602,61.884995 355.142586,60.5650083 356.462593,58.915 C357.7826,57.2649917 358.809256,55.3583441 359.542593,53.195 C360.27593,51.0316558 360.642593,48.7766784 360.642593,46.43 C360.642593,44.0099879 360.220931,41.7183442 359.377593,39.555 C358.534255,37.3916559 357.3976,35.5033414 355.967593,33.89 C354.537586,32.2766586 352.850936,31.0116713 350.907593,30.095 C348.96425,29.1783287 346.92927,28.72 344.802593,28.72 L320.492593,28.72 L320.492593,64.36 Z M393.250124,101.1 C387.236761,101.1 382.690139,99.0283541 379.610124,94.885 C376.530109,90.741646 374.990124,84.5633744 374.990124,76.35 L374.990124,42.69 L382.470124,42.69 L382.470124,75.03 C382.470124,88.0100649 386.906746,94.5 395.780124,94.5 C397.980135,94.5 400.143447,94.133337 402.270124,93.4 C404.396801,92.666663 406.358448,91.6033403 408.155124,90.21 C409.9518,88.8166597 411.565117,87.1666762 412.995124,85.26 C414.425131,83.3533238 415.58012,81.1900121 416.460124,78.77 L416.460124,42.69 L423.940124,42.69 L423.940124,90.32 C423.940124,92.3733436 424.856781,93.4 426.690124,93.4 L426.690124,100 C425.22345,100.220001 424.196794,100.33 423.610124,100.33 C421.923449,100.33 420.47513,99.8166718 419.265124,98.79 C418.055118,97.7633282 417.450124,96.4800077 417.450124,94.94 L417.450124,87.02 C414.883444,91.4933557 411.473479,94.958321 407.220124,97.415 C402.966769,99.8716789 398.310149,101.1 393.250124,101.1 Z M465.127655,101.1 C460.654299,101.1 456.511007,99.9633447 452.697655,97.69 C448.884303,95.4166553 445.914332,92.4833513 443.787655,88.89 L443.787655,100 L437.077655,100 L437.077655,19.7 L444.557655,19.7 L444.557655,54.68 C447.124334,50.7933139 450.204304,47.6583453 453.797655,45.275 C457.391006,42.8916547 461.607631,41.7 466.447655,41.7 C470.407675,41.7 474.000972,42.5433249 477.227655,44.23 C480.454338,45.9166751 483.185977,48.1716525 485.422655,50.995 C487.659333,53.8183475 489.382649,57.0083156 490.592655,60.565 C491.802661,64.1216844 492.407655,67.7699813 492.407655,71.51 C492.407655,75.5433535 491.710995,79.3566487 490.317655,82.95 C488.924315,86.5433513 486.999334,89.67832 484.542655,92.355 C482.085976,95.03168 479.189338,97.1583255 475.852655,98.735 C472.515972,100.311675 468.941007,101.1 465.127655,101.1 Z M463.367655,94.5 C466.521004,94.5 469.399309,93.8583398 472.002655,92.575 C474.606001,91.2916603 476.842646,89.5683442 478.712655,87.405 C480.582664,85.2416559 482.049316,82.7850137 483.112655,80.035 C484.175994,77.2849862 484.707655,74.443348 484.707655,71.51 C484.707655,68.5033183 484.21266,65.6066806 483.222655,62.82 C482.23265,60.0333194 480.839331,57.5583441 479.042655,55.395 C477.245979,53.2316558 475.101001,51.5083398 472.607655,50.225 C470.114309,48.9416602 467.364337,48.3 464.357655,48.3 C462.08431,48.3 459.957665,48.6849962 457.977655,49.455 C455.997645,50.2250039 454.16433,51.2699934 452.477655,52.59 C450.79098,53.9100066 449.269328,55.4316581 447.912655,57.155 C446.555982,58.8783419 445.437659,60.6933238 444.557655,62.6 L444.557655,80.42 C444.85099,82.4000099 445.639315,84.2516581 446.922655,85.975 C448.205995,87.6983419 449.764312,89.1833271 451.597655,90.43 C453.430997,91.6766729 455.374311,92.666663 457.427655,93.4 C459.480999,94.133337 461.460979,94.5 463.367655,94.5 Z" id="PubPub"></path>
            </g>
        </g>
    </g>
</svg>